<svg width="169" height="169" viewBox="0 0 169 169" fill="none" xmlns="http://www.w3.org/2000/svg">
<path d="M64.8984 78.4688H13.6328C10.0337 78.4687 6.58208 77.039 4.03715 74.4941C1.49223 71.9492 0.0625 68.4975 0.0625 64.8984V13.6328C0.0625 10.0337 1.49223 6.58208 4.03715 4.03715C6.58208 1.49223 10.0337 0.0625 13.6328 0.0625H64.8984C68.4975 0.0625 71.9492 1.49223 74.4941 4.03715C77.039 6.58208 78.4688 10.0337 78.4688 13.6328V64.8984C78.4687 68.4975 77.039 71.9492 74.4941 74.4941C71.9492 77.039 68.4975 78.4688 64.8984 78.4688ZM155.367 78.4688H104.102C100.502 78.4687 97.0508 77.039 94.5059 74.4941C91.961 71.9492 90.5312 68.4975 90.5312 64.8984V13.6328C90.5312 10.0337 91.961 6.58208 94.5059 4.03715C97.0508 1.49223 100.502 0.0625 104.102 0.0625H155.367C158.966 0.0625 162.418 1.49223 164.963 4.03715C167.508 6.58208 168.938 10.0337 168.938 13.6328V64.8984C168.937 68.4975 167.508 71.9492 164.963 74.4941C162.418 77.039 158.966 78.4688 155.367 78.4688ZM64.8984 168.938H13.6328C10.0337 168.937 6.58208 167.508 4.03715 164.963C1.49223 162.418 0.0625 158.966 0.0625 155.367V104.102C0.0625 100.502 1.49223 97.0508 4.03715 94.5059C6.58208 91.961 10.0337 90.5312 13.6328 90.5312H64.8984C68.4975 90.5312 71.9492 91.961 74.4941 94.5059C77.039 97.0508 78.4688 100.502 78.4688 104.102V155.367C78.4687 158.966 77.039 162.418 74.4941 164.963C71.9492 167.508 68.4975 168.938 64.8984 168.938ZM155.367 168.938H104.102C100.502 168.937 97.0508 167.508 94.5059 164.963C91.961 162.418 90.5312 158.966 90.5312 155.367V104.102C90.5312 100.502 91.961 97.0508 94.5059 94.5059C97.0508 91.961 100.502 90.5312 104.102 90.5312H155.367C158.966 90.5312 162.418 91.961 164.963 94.5059C167.508 97.0508 168.938 100.502 168.938 104.102V155.367C168.937 158.966 167.508 162.418 164.963 164.963C162.418 167.508 158.966 168.938 155.367 168.938Z" fill="white"/>
</svg>
