<svg width="201" height="200" viewBox="0 0 201 200" fill="none" xmlns="http://www.w3.org/2000/svg">
<path d="M62.8125 56.25H175.875M62.8125 100H175.875M62.8125 143.75H175.875" stroke="white" stroke-width="20" stroke-linecap="round" stroke-linejoin="round"/>
<path d="M31.4062 62.5C34.8753 62.5 37.6875 59.7018 37.6875 56.25C37.6875 52.7982 34.8753 50 31.4062 50C27.9372 50 25.125 52.7982 25.125 56.25C25.125 59.7018 27.9372 62.5 31.4062 62.5Z" stroke="white" stroke-width="10" stroke-linecap="round" stroke-linejoin="round"/>
<path d="M31.4062 106.25C34.8753 106.25 37.6875 103.452 37.6875 100C37.6875 96.5482 34.8753 93.75 31.4062 93.75C27.9372 93.75 25.125 96.5482 25.125 100C25.125 103.452 27.9372 106.25 31.4062 106.25Z" stroke="white" stroke-width="10" stroke-linecap="round" stroke-linejoin="round"/>
<path d="M31.4062 150C34.8753 150 37.6875 147.202 37.6875 143.75C37.6875 140.298 34.8753 137.5 31.4062 137.5C27.9372 137.5 25.125 140.298 25.125 143.75C25.125 147.202 27.9372 150 31.4062 150Z" stroke="white" stroke-width="10" stroke-linecap="round" stroke-linejoin="round"/>
</svg>
